# xmcd
#
# Track frame offsets:
#	150
#	22130
#	35752
#	50415
#	67703
#	85555
#	100738
#	108648
#	127068
#	141249
#	155402
#	173279
#	192338
#
# Disc length: 3147 seconds
#
# Revision: 1
# Processed by: cddbd v1.5.2PL0 Copyright (c) Steve Scherf et al.
# Submitted via: EasyCDDAExtractor 7.0.5.4
#
DISCID=a90c490d
DTITLE=Ghostwriter and Boxcar Satan - Hobo Houveau
DYEAR=2007
DGENRE=garage
TTITLE0=dead man's hand
TTITLE1=people
TTITLE2=drinkin shine
TTITLE3=traveling man
TTITLE4=disarray
TTITLE5=server somebody
TTITLE6=i got back
TTITLE7=blood on my mind
TTITLE8=yuppie
TTITLE9=circus
TTITLE10=dark as a dungeon
TTITLE11=jesus christ
TTITLE12=blaze's blues
EXTD=
EXTT0=
EXTT1=
EXTT2=
EXTT3=
EXTT4=
EXTT5=
EXTT6=
EXTT7=
EXTT8=
EXTT9=
EXTT10=
EXTT11=
EXTT12=
PLAYORDER=
